<svg width="51" height="81" viewBox="0 0 51 81" fill="none" xmlns="http://www.w3.org/2000/svg">
<path d="M2.0625 5.08765H0V9.21265L0.6875 10.5876H2.75L2.0625 9.21265V5.08765ZM0.6875 1.65015H2.75V3.71265H0.6875V1.65015ZM3.4375 9.21265L4.8125 11.9626H6.1875L7.5625 9.21265V5.08765H3.4375V9.21265ZM4.125 0.962646H6.875V3.71265H4.125V0.962646ZM8.9375 5.08765V9.21265L8.25 10.5876H10.3125L11 9.21265V5.08765H8.9375ZM8.25 1.65015H10.3125V3.71265H8.25V1.65015Z" fill="white"/>
<path opacity="0.3" fill-rule="evenodd" clip-rule="evenodd" d="M50.0825 30.999H4.08252V80.999H50.0825V30.999ZM32.8615 55.2709H27.8695V50.2149C27.8695 49.9589 27.7415 49.8309 27.4855 49.8309H26.7495C26.4935 49.8309 26.3655 49.9589 26.3655 50.2149V55.2709H21.3735C21.1175 55.2709 20.9895 55.3882 20.9895 55.6229V56.3269C20.9895 56.5616 21.1175 56.6789 21.3735 56.6789H26.3655V61.7349C26.3655 61.9909 26.4935 62.1189 26.7495 62.1189H27.4855C27.7415 62.1189 27.8695 61.9909 27.8695 61.7349V56.6789H32.8615C33.1175 56.6789 33.2455 56.5616 33.2455 56.3269V55.6229C33.2455 55.3882 33.1175 55.2709 32.8615 55.2709Z" fill="white"/>
</svg>
